<?xml version="1.0" encoding="UTF-8"?>
<svg id="Ebene_1" xmlns="http://www.w3.org/2000/svg" version="1.1" viewBox="0 0 400 250">
  <!-- Generator: Adobe Illustrator 29.1.0, SVG Export Plug-In . SVG Version: 2.1.0 Build 142)  -->
  <defs>
    <style>
      .st0 {
        fill: #15632d;
      }

      .st1 {
        fill: #229d38;
      }

      .st2 {
        fill: #19321d;
      }

      .st3 {
        fill: #1a4c23;
      }

      .st4 {
        fill: #1b401f;
      }
    </style>
  </defs>
  <path class="st2" d="M69.67,127.12c-3.25,3.87-6.53,7.65-9.87,11.29l-6.28,3.56,24.97-93.28c-2.58-6.54-9.66-6.88-12.19-.16-4.11,10.93-6.25,24.68-9.5,36.05l-11.33-6.32C14.27,70.25-1.36,104.53-1.5,130.17c-.1,18.5,17.45,28.53,34.3,23.54,2.22-.66,6.48-3.56,7.99-3.52,1.61.04,2.99,2.58,4.73,3.44,8.2,4.04,17.18-1.36,23.23-6.7l7.45-8.84c-4.16-2.35-5.98-6.44-6.53-10.97ZM50.85,103.6c-.51,9.56-7.97,30.74-16.47,36.11-8.14,5.14-21.95,3.59-22.84-7.95-1.06-13.73,8.32-41.66,25.33-42.03,8.19-.17,14.43,5.51,13.98,13.87Z"/>
  <path class="st4" d="M127.79,135.5c-.23.24-.45.5-.68.74-2.41,2.56-6.3,7.71-10.3,5.32-2.66-1.58-1.16-6.27-.38-8.59,3.64-10.79,11.01-22.29,15.33-33.08,5.3-13.22,3.68-11.33-7.53-19,8.18-7.43-.23-17.24-8.66-8.62-16.14,16.52-30.63,36.65-45.92,54.84.55,4.53,2.37,8.61,6.53,10.97l40.21-47.73,4.52,2.83c-4.71,11.48-11.88,23.3-16.01,34.87-3.33,9.33-5.08,21.38,6.38,25.59,10.85,3.98,18.53-2.49,25.5-9.77-6.03-1.17-8.43-4.52-9-8.36Z"/>
  <path class="st3" d="M178.92,134.6c-1.58,1.71-6.38,6.81-8.25,7.36-1.91.55-1.04-.88-.9-1.71l15.26-55.35c-1.39-7.7-7.58-7.85-12.71-2.79-15.58,15.34-29.33,37.06-44.52,53.4.57,3.84,2.97,7.19,9,8.36.34-.35.67-.71,1.01-1.06,9.08-9.65,17.03-21.52,26.31-31.16.02,11.09-16.34,36.59-1.22,42.19,10.83,4.01,19.03-4.37,25.75-11.63-3.35-3.67-4.32-8.97-4.43-13.48-1.77,2.01-3.54,3.98-5.3,5.88Z"/>
  <path class="st3" d="M186.09,67.2c10.58-1.53,9.13-19-3.72-16.06-8.85,2.02-6.71,17.57,3.72,16.06Z"/>
  <path class="st0" d="M279.5,128.81c-2.85,3.17-5.69,6.22-8.48,9.07-1.52,1.56-2.99,3.06-4.96,4.08-2,.58-1.24-2.33-1.02-3.48,3.38-17.25,21.55-50.56-2.93-59.79-9.37-3.53-19.91-.43-27.29,5.89-7.48-15.08-15.4,1.92-20.98,8.59-8.76,10.47-20.39,24.9-29.62,35.56v3.8c.55,3.26,2.13,7.17,4.43,9.68.32-.35.65-.7.97-1.04,8.73-9.44,16.13-20.24,25.06-29.53-.53,8.87-11.13,31.13-8.67,38.58,1.53,4.63,9.01,4.39,11.2-.4,7.64-16.71,7.81-49.72,27.6-58.57,7.11-3.18,15.91-2.84,17.38,6.24,1.5,9.34-8.61,31.12-10.12,41.98-.9,6.47-.3,11.49,6.43,14.16,9.05,3.58,15.79-1.58,21.6-7.53-2.83-4.68-2.14-11.43-.59-17.28Z"/>
  <path class="st1" d="M391.49,106.32l-30.85,34.83c-9.04,6.32-13.78-9.05-17.68-14.75,16.88-2.87,35.1-22.49,23.38-39.31-7.94-11.4-25.05-11.57-36.54-5.8,1.56-9.03,8.07-21.95,8.28-30.74.18-7.21-8.01-9.34-11.11-3.63-3.63,6.68-4.56,20.74-7.83,28.26-10.13,17.56-25.05,37.39-39.65,53.62-1.54,5.85-2.23,12.6.59,17.28.68-.69,1.34-1.39,1.99-2.1,9.02-9.68,17.33-21.39,25.93-31.54,1.1.54,0,2.24-.2,3.08-1.84,7.73-8.77,26.01-8.49,32.56.17,4.03,3.1,5.81,6.96,5.32,4.13-.52,4.55-3.49,5.63-6.74,5.68-17.02,9.8-57.42,33.92-57.26,17.82.12,13.82,18.66-1.62,23.87-5.22,1.76-16.41.93-16.87,7.8-.23,3.46,12.08,24.48,14.91,27.7,6.24,7.11,18.39,7.56,25.78,2.17,6.33-4.62,23.03-25.3,28.35-32.41,5.13-6.86,5.87-13.37-4.9-12.26Z"/>
  <path class="st3" d="M314.67,187.96c-.64.2-6.76,8.03-9.26,9.63-3.2,2.03-10.9,4.5-13.04.14-2.9-5.92,6.82-3.59,10.31-4.5,9.72-2.53,8.31-19.35-6.38-14.56-7.2,2.35-9.59,13.86-17.49,13.3-.06-2.56,2.61-4.04,3.13-6.33,2.49-11.05-14.78-10.62-12,2.45.38,1.77,2.75,3.83,1.92,5.49-1.23,2.15-11.02,9.73-11.13,4.6-.09-3.96,4.97-12.55,4.96-17.32,0-3-1.8-3.55-3.9-1.74-4.84,4.16-9.95,12.95-14.63,17.78-1.02,1.05-2.03,2.66-3.71,2.44.8-4.35,5.97-16.33,4.82-19.95-.25-.79-1.02-1.55-1.92-1.36-3.71,3.66-7.28,7.55-10.71,11.46-.78.88-8.79,12.43-10.26,10.66-.15-6.45,4.64-11.79,6.45-17.79.29-1.68-2.21-1.78-2.81-2.71-.89-1.37,1.8-4.97-1.59-4.94-2.67.02-17.42,19.77-20.54,23-.86.88-1.45,1.91-2.89,1.62l8.19-29.19-.36-2.8c-3.81-5.47-5.51,10.79-7,11.94-17.74-10.34-28.57,26.48-9.57,24.95,3.09-.25,4.32-2.16,8.25.03,5.98.38,20.04-21.99,22.27-22.12,1.55-.09.71,1.49.55,2.15-1.2,5.05-8.69,13.63-4.63,18.3,6.28,7.23,14.76-8.78,19.28-11.45.32,3.42-3.77,9.74-.48,12.37,5.75,4.61,13.48-10.05,17.75-12.37-1.04,4.9-4.2,11.85,3.1,12.97,7.37,1.13,12.18-8.2,14.68-8.68,3.04-.58,8.53,2.86,11.82-1.83-.93,10.66,10.05,12.76,18.14,8.65,2.8-1.42,12.28-9.93,11.43-13.08-.29-1.08-1.65-1.58-2.75-1.24ZM303.95,182.9c1.86,7.23-5.01,7.02-10.33,6.61.11-5.11,5.42-9.51,10.33-6.61ZM191.33,199.27c-3.67-2.39-.59-11.9,1.59-14.63,1.98-2.47,6.97-3.7,9.22-1.48,3.18,3.14-3.08,21.14-10.81,16.11ZM275.12,188.69c-2.17-1.57-1.14-4.03-.5-6.06l3.37-.48c.74.69-2.06,6.5-2.87,6.54Z"/>
  <path class="st3" d="M155.89,197.73c-.86.88-1.44,1.92-2.89,1.62l8.21-32.79-3.71.8-3.67,11.94c-15.44-6.77-21.21,12.48-30.86,20.05-.67-5.97,6.18-14.54.86-19.71-2.59-2.52-9.63-2.57-11.55.85l-1.67-2.45-2.05.37c-6,6.98-11.43,15.09-18.47,20.94.38-5.74,3.67-11.41,4.33-17.03.21-1.77.74-4.07-1.74-4.18-2.43,2.81-3.54.2-5.93-.07-5.46-.6-8.5.07-11.88,4.47-4.23,5.51-6.82,19.58,2.24,21.57,3.78.83,5.9-1.56,8.06-1.43,1.18.07,2.09,1.39,3.33,1.6,5.8.95,12.59-11.52,16.78-14.77l-2.9,13.13c1.77,1.75,2.95.74,3.92-1.06,2.6-4.82,3.07-20.01,11.74-19.54,9.89.53-7.36,21.67,4.18,22.23,4.26.21,8.03-8.06,11.84-9.85-.32,5.53,3.77,10.11,9.44,9.88,1.99-.08,3.87-1.49,5.11-1.51,1.54-.02,2.31,2.12,5.4,1.3,2.72-.72,13.29-12.5,13.77-15.01.13-.66,0-1.37,0-2.03-2.57-2.58-10.14,8.85-11.91,10.67ZM84.67,198.05c-1.44,1.5-5.55,2.7-7.32,1.76-4.03-2.12-.76-12.1,1.36-15,1.86-2.55,6.84-3.92,9.13-1.65,2.3,2.27-1.15,12.79-3.17,14.89ZM140.35,199.27c-4.04-2.63.2-14.29,3.29-16.22,1.83-1.14,5.96-1.44,7.52.1,3.17,3.13-3.07,21.14-10.81,16.11Z"/>
</svg>