<?xml version="1.0" encoding="UTF-8"?>
<svg id="Ebene_1" xmlns="http://www.w3.org/2000/svg" version="1.1" viewBox="0 0 400 250">
  <!-- Generator: Adobe Illustrator 29.1.0, SVG Export Plug-In . SVG Version: 2.1.0 Build 142)  -->
  <defs>
    <style>
      .st0 {
        fill: #15632d;
      }

      .st1 {
        fill: #229d38;
      }

      .st2 {
        fill: #19321d;
      }

      .st3 {
        fill: #1a4c23;
      }

      .st4 {
        fill: #1b401f;
      }
    </style>
  </defs>
  <path class="st2" d="M70.9,127.4c-3.24,3.85-6.5,7.62-9.84,11.24l-6.26,3.55,24.87-92.93c-2.57-6.52-9.62-6.86-12.14-.16-4.1,10.89-6.23,24.59-9.46,35.92l-11.29-6.3C15.71,70.75.13,104.9,0,130.45c-.1,18.44,17.38,28.42,34.17,23.45,2.21-.66,6.46-3.54,7.96-3.51,1.61.04,2.98,2.57,4.72,3.43,8.17,4.03,17.11-1.35,23.15-6.68l7.42-8.81c-4.14-2.35-5.96-6.42-6.51-10.93ZM52.16,103.98c-.51,9.52-7.94,30.63-16.41,35.98-8.11,5.12-21.87,3.57-22.76-7.92-1.06-13.68,8.29-41.51,25.24-41.87,8.16-.17,14.38,5.49,13.93,13.82Z"/>
  <path class="st4" d="M128.81,135.76c-.23.24-.45.5-.68.74-2.41,2.55-6.28,7.68-10.26,5.3-2.65-1.58-1.16-6.24-.38-8.56,3.62-10.75,10.97-22.21,15.27-32.96,5.28-13.17,3.67-11.28-7.5-18.93,8.15-7.4-.23-17.17-8.62-8.58-16.08,16.46-30.52,36.51-45.74,54.64.54,4.51,2.36,8.58,6.51,10.93l40.06-47.55,4.51,2.82c-4.69,11.43-11.84,23.22-15.95,34.74-3.32,9.3-5.06,21.3,6.36,25.49,10.81,3.97,18.47-2.48,25.4-9.73-6.01-1.17-8.4-4.5-8.97-8.33Z"/>
  <path class="st3" d="M179.74,134.86c-1.58,1.7-6.35,6.79-8.22,7.33-1.9.55-1.04-.87-.9-1.71l15.2-55.15c-1.38-7.67-7.55-7.82-12.67-2.78-15.53,15.29-29.22,36.92-44.35,53.2.57,3.83,2.96,7.16,8.97,8.33.34-.35.67-.7,1.01-1.06,9.04-9.61,16.97-21.44,26.21-31.05.02,11.04-16.28,36.45-1.21,42.03,10.79,4,18.96-4.35,25.65-11.58-3.34-3.66-4.31-8.94-4.41-13.43-1.77,2-3.53,3.96-5.28,5.85Z"/>
  <path class="st3" d="M186.89,67.72c10.54-1.52,9.1-18.93-3.71-16-8.82,2.01-6.68,17.5,3.71,16Z"/>
  <path class="st0" d="M279.95,129.09c-2.84,3.16-5.67,6.2-8.45,9.04-1.52,1.55-2.98,3.05-4.94,4.06-1.99.58-1.24-2.32-1.01-3.46,3.37-17.18,21.47-50.38-2.92-59.57-9.34-3.52-19.83-.43-27.19,5.86-7.45-15.03-15.34,1.91-20.91,8.56-8.73,10.43-20.31,24.81-29.51,35.43v3.78c.55,3.25,2.12,7.14,4.41,9.65.32-.35.64-.7.96-1.04,8.7-9.41,16.07-20.16,24.97-29.42-.53,8.84-11.09,31.01-8.64,38.44,1.52,4.62,8.98,4.37,11.16-.4,7.61-16.65,7.78-49.54,27.49-58.35,7.09-3.17,15.85-2.83,17.31,6.22,1.5,9.3-8.58,31.01-10.08,41.83-.9,6.44-.3,11.45,6.41,14.1,9.02,3.57,15.73-1.58,21.52-7.5-2.82-4.67-2.13-11.39-.59-17.22Z"/>
  <path class="st1" d="M391.52,106.69l-30.73,34.7c-9,6.3-13.73-9.01-17.61-14.69,16.82-2.86,34.97-22.41,23.3-39.17-7.91-11.36-24.96-11.53-36.4-5.78,1.56-9,8.04-21.87,8.25-30.62.18-7.19-7.98-9.3-11.07-3.62-3.62,6.66-4.55,20.66-7.81,28.16-10.09,17.5-24.96,37.25-39.5,53.42-1.54,5.83-2.23,12.55.59,17.22.67-.69,1.34-1.39,1.99-2.09,8.99-9.64,17.26-21.31,25.83-31.42,1.09.54,0,2.23-.2,3.07-1.83,7.7-8.73,25.91-8.46,32.44.17,4.02,3.09,5.79,6.94,5.3,4.12-.52,4.53-3.48,5.61-6.71,5.66-16.95,9.76-57.2,33.79-57.04,17.75.12,13.77,18.59-1.61,23.78-5.2,1.75-16.35.92-16.81,7.77-.23,3.45,12.03,24.39,14.85,27.6,6.22,7.08,18.33,7.53,25.68,2.17,6.3-4.6,22.94-25.2,28.24-32.29,5.12-6.84,5.85-13.32-4.88-12.21Z"/>
  <path class="st3" d="M314.99,188.02c-.64.2-6.73,8-9.23,9.59-3.19,2.03-10.86,4.49-12.99.14-2.89-5.9,6.8-3.57,10.27-4.48,9.68-2.52,8.28-19.28-6.35-14.5-7.17,2.34-9.55,13.8-17.42,13.25-.06-2.55,2.6-4.03,3.11-6.3,2.48-11.01-14.73-10.58-11.95,2.44.38,1.76,2.74,3.81,1.91,5.47-1.22,2.14-10.98,9.7-11.09,4.58-.09-3.95,4.95-12.5,4.94-17.26,0-2.99-1.79-3.53-3.89-1.74-4.83,4.14-9.92,12.9-14.57,17.71-1.01,1.05-2.03,2.65-3.7,2.43.8-4.33,5.95-16.27,4.8-19.87-.25-.79-1.02-1.55-1.92-1.35-3.7,3.65-7.25,7.52-10.67,11.42-.77.88-8.75,12.38-10.23,10.62-.15-6.43,4.62-11.75,6.43-17.73.29-1.67-2.2-1.77-2.8-2.7-.89-1.36,1.79-4.95-1.59-4.92-2.66.02-17.36,19.7-20.46,22.91-.85.88-1.44,1.91-2.88,1.62l8.16-29.08-.36-2.79c-3.8-5.45-5.49,10.75-6.97,11.9-17.67-10.3-28.46,26.38-9.53,24.85,3.08-.25,4.3-2.15,8.22.03,5.96.38,19.97-21.91,22.18-22.04,1.55-.09.71,1.49.55,2.14-1.2,5.03-8.66,13.58-4.62,18.23,6.25,7.2,14.71-8.74,19.21-11.41.32,3.4-3.76,9.7-.48,12.33,5.73,4.59,13.43-10.01,17.69-12.33-1.03,4.88-4.19,11.8,3.09,12.92,7.34,1.13,12.14-8.17,14.63-8.65,3.03-.58,8.5,2.85,11.78-1.83-.93,10.62,10.01,12.71,18.08,8.62,2.79-1.42,12.23-9.89,11.39-13.03-.29-1.07-1.64-1.57-2.74-1.23ZM304.31,182.99c1.86,7.21-4.99,6.99-10.29,6.59.11-5.09,5.4-9.47,10.29-6.59ZM192.11,199.29c-3.65-2.38-.59-11.86,1.59-14.58,1.97-2.46,6.94-3.69,9.18-1.47,3.16,3.12-3.07,21.06-10.77,16.05ZM275.58,188.74c-2.16-1.56-1.14-4.01-.49-6.04l3.36-.48c.74.69-2.05,6.47-2.86,6.51Z"/>
  <path class="st3" d="M156.81,197.76c-.85.88-1.44,1.91-2.88,1.62l8.18-32.67-3.7.8-3.65,11.89c-15.38-6.75-21.13,12.43-30.74,19.98-.67-5.95,6.15-14.49.86-19.63-2.58-2.51-9.59-2.56-11.51.85l-1.67-2.44-2.04.37c-5.98,6.96-11.39,15.04-18.4,20.87.38-5.72,3.66-11.37,4.31-16.97.2-1.76.74-4.06-1.73-4.17-2.42,2.79-3.52.2-5.91-.07-5.44-.6-8.47.07-11.83,4.45-4.21,5.49-6.79,19.51,2.23,21.49,3.77.83,5.88-1.55,8.03-1.43,1.17.07,2.08,1.39,3.32,1.59,5.78.95,12.54-11.48,16.72-14.71l-2.89,13.08c1.76,1.74,2.94.74,3.9-1.05,2.59-4.8,3.06-19.93,11.7-19.47,9.85.53-7.34,21.59,4.17,22.15,4.25.21,8-8.03,11.8-9.81-.32,5.51,3.76,10.07,9.4,9.84,1.98-.08,3.85-1.49,5.09-1.5,1.53-.02,2.31,2.11,5.38,1.3,2.71-.72,13.25-12.45,13.72-14.96.13-.66,0-1.36,0-2.02-2.56-2.57-10.11,8.81-11.86,10.63ZM85.85,198.07c-1.43,1.49-5.53,2.69-7.29,1.76-4.01-2.11-.76-12.05,1.35-14.95,1.85-2.54,6.81-3.9,9.1-1.65,2.29,2.26-1.15,12.74-3.16,14.83ZM141.32,199.29c-4.03-2.62.2-14.23,3.28-16.16,1.82-1.13,5.93-1.44,7.49.1,3.16,3.12-3.06,21.06-10.77,16.05Z"/>
</svg>